<svg width="475" height="394" viewBox="0 0 475 394" fill="none" xmlns="http://www.w3.org/2000/svg">
<rect width="475" height="394"s/>
<path d="M329.164 363.753L187.674 359.733C187.674 359.733 198.324 296.023 164.154 278.343C140.864 266.283 120.194 209.953 126.074 171.623C126.154 171.113 126.234 170.603 126.324 170.103C129.304 152.943 137.824 139.653 154.114 136.043C206.774 124.383 244.354 133.423 244.354 133.423C244.354 133.423 253.054 133.533 265.944 135.953C266.404 136.033 266.864 136.123 267.324 136.223C303.814 143.373 371.264 168.833 374.184 259.233C378.204 383.433 329.164 363.733 329.164 363.733V363.753Z" fill="#3F3D56"/>
<path d="M265.944 135.963C265.704 142.443 264.234 148.883 261.554 155.003C255.994 167.693 245.854 177.383 233.014 182.293C194.554 197.013 149.674 182.413 126.974 166.583C126.884 167.083 125.084 176.573 125.004 177.083C135.054 183.963 184.244 190.593 193.574 190.593C207.744 190.593 221.384 188.243 233.514 183.593C246.704 178.543 257.114 168.583 262.824 155.553C265.554 149.333 267.054 142.803 267.324 136.223C266.864 136.123 266.404 136.033 265.944 135.953V135.963Z" fill="#675F91"/>
<path d="M276.404 144.213L253.854 87.5028C253.854 87.5028 280.924 41.1028 259.654 35.9528C238.384 30.7928 216.474 58.5028 216.474 58.5028C216.474 58.5028 175.874 44.3228 160.414 55.9228C160.414 55.9228 134.634 19.8328 119.174 26.9228C103.704 34.0128 124.674 85.1028 124.674 85.1028C124.674 85.1028 92.7537 131.963 117.244 159.023C141.734 186.093 233.884 208.003 276.414 144.203L276.404 144.213Z" fill="#3F3D56"/>
<path d="M324.774 329.812C332.454 333.232 340.474 336.712 348.874 336.382C357.274 336.052 366.104 330.642 367.414 322.342C368.094 318.052 366.754 313.462 368.394 309.442C370.604 304.042 377.724 301.952 383.254 303.802C388.794 305.652 392.854 310.432 395.774 315.482C401.234 324.942 403.414 337.362 397.564 346.582C392.494 354.572 382.874 358.192 373.934 361.292C362.014 365.422 348.714 369.512 337.164 364.442C325.554 359.342 319.224 344.612 323.524 332.682" fill="#3F3D56"/>
<path d="M197.734 118.722C197.734 118.722 183.854 113.172 174.844 120.112L185.254 136.072L197.744 118.732L197.734 118.722Z" fill="#675F91"/>
<path d="M124.884 191.562L150.554 328.243C150.554 328.243 111.704 367.792 161.654 367.092C211.604 366.402 197.034 340.732 197.034 340.732L181.074 222.092" fill="#3F3D56"/>
<path d="M160.395 368.103C146.865 368.103 138.685 365.003 136.065 358.873C131.295 347.713 146.825 330.703 149.485 327.903L132.225 225.723L134.195 225.393L151.625 328.573L151.265 328.933C151.085 329.113 133.325 347.383 137.905 358.083C140.255 363.583 148.225 366.273 161.645 366.083C180.295 365.823 192.315 361.913 196.415 354.783C200.105 348.363 196.205 341.283 196.165 341.213L196.075 341.043L196.045 340.853L184.945 258.293L186.925 258.023L198.005 340.403C198.665 341.653 202.115 348.863 198.165 355.763C193.635 363.663 181.355 367.813 161.675 368.083C161.245 368.083 160.825 368.083 160.405 368.083L160.395 368.103Z" fill="#2F2E41"/>
<path d="M190.094 191.562L215.764 328.243C215.764 328.243 176.914 367.792 226.864 367.092C276.814 366.402 262.244 340.732 262.244 340.732L246.284 222.092" fill="#3F3D56"/>
<path d="M225.605 368.102C212.075 368.102 203.895 365.002 201.275 358.872C196.505 347.732 212.005 330.742 214.685 327.912L204.375 272.912L206.345 272.542L216.845 328.562L216.475 328.932C216.295 329.112 198.535 347.382 203.115 358.082C205.465 363.582 213.445 366.282 226.855 366.082C245.515 365.822 257.545 361.912 261.635 354.762C265.325 348.322 261.415 341.282 261.375 341.212L261.275 341.042L245.295 222.212L247.275 221.942L263.205 340.402C263.865 341.652 267.315 348.862 263.365 355.762C258.835 363.662 246.555 367.812 226.875 368.082C226.445 368.082 226.025 368.082 225.605 368.082V368.102Z" fill="#2F2E41"/>
</svg>
