<svg width="528" height="507" viewBox="0 0 528 507" fill="none" xmlns="http://www.w3.org/2000/svg">
<path d="M145.733 449.535C150.733 473.535 179.233 444.035 179.233 444.035L213.233 440.035C213.233 440.035 234.733 440.535 248.733 451.535C262.733 462.535 272.233 448.035 272.233 448.035C288.006 453.292 307.33 453.271 324.066 451.587C348.182 449.161 367.512 430.547 370.826 406.537C389.523 271.095 286.733 204.535 286.733 204.535L256.733 123.535C256.733 123.535 266.233 100.035 269.233 79.0349C272.233 58.0349 250.233 38.0348 223.233 18.0348C211.421 9.28484 197.885 9.91375 186.396 13.3898C173.507 17.2893 162.264 25.3081 153.956 35.906C147.074 44.6859 135.269 57.1207 122.293 59.2748C117.803 60.0148 113.373 61.7949 109.233 65.0348C104.953 68.3848 103.063 73.9748 103.003 80.9249C102.683 111.285 127.753 147.835 149.733 153.535C176.733 160.535 162.233 227.035 162.233 227.035C118.233 289.035 149.233 358.035 149.233 358.035L141.233 414.035C141.233 414.035 140.733 425.535 145.733 449.535Z" fill="#3F3D56"/>
<path d="M292.732 320.535L281.732 457.535C281.732 457.535 296.732 495.535 245.732 493.535C194.732 491.535 224.732 413.535 224.732 413.535L240.732 311.535" fill="#3F3D56"/>
<path d="M249.528 494.611C248.281 494.611 247.005 494.585 245.694 494.533C234.404 494.091 226.091 489.933 220.983 482.175C206.381 459.993 222.622 416.269 223.761 413.276L239.745 311.379C239.831 310.833 240.339 310.466 240.888 310.546C241.433 310.632 241.806 311.144 241.721 311.69L225.721 413.69C225.71 413.759 225.692 413.827 225.667 413.894C225.492 414.346 208.415 459.449 222.655 481.077C227.387 488.264 235.165 492.119 245.772 492.535C262.425 493.185 273.625 489.632 279.07 481.967C286.194 471.939 280.857 458.04 280.802 457.901C280.747 457.759 280.724 457.606 280.736 457.454L291.736 320.454C291.78 319.905 292.253 319.503 292.813 319.537C293.364 319.582 293.774 320.064 293.73 320.614L282.748 457.39C283.474 459.351 288.03 472.794 280.709 483.113C275.292 490.749 264.81 494.611 249.528 494.611Z" fill="#2F2E41"/>
<path d="M201.733 348.535C201.733 348.535 204.733 475.535 141.733 472.535C78.7328 469.535 135.733 429.535 135.733 429.535L141.233 414.035" fill="#3F3D56"/>
<path d="M143.895 473.587C143.164 473.587 142.428 473.569 141.685 473.534C123.697 472.678 113.533 468.647 111.477 461.556C107.773 448.776 131.917 431.034 134.896 428.902L140.291 413.701C140.475 413.18 141.047 412.908 141.567 413.093C142.088 413.277 142.36 413.849 142.175 414.369L136.675 429.869C136.606 430.065 136.477 430.234 136.307 430.354C136.044 430.539 109.93 449.038 113.399 460.999C115.191 467.18 124.74 470.725 141.781 471.536C153.13 472.082 163.078 468.266 171.332 460.207C202.284 429.991 200.753 349.369 200.733 348.559C200.72 348.007 201.157 347.549 201.71 347.535C202.232 347.536 202.719 347.96 202.733 348.512C202.812 351.857 204.305 430.81 172.73 461.637C164.602 469.572 154.91 473.587 143.895 473.587Z" fill="#2F2E41"/>
<path d="M103.002 80.9244C110.182 81.7844 121.422 81.7444 130.732 75.5344C140.702 68.8844 130.352 62.6844 122.292 59.2744C117.802 60.0144 113.372 61.7944 109.232 65.0344C104.952 68.3844 103.062 73.9744 103.002 80.9244Z" fill="#2F2E41"/>
<path d="M219.03 62.9442C219.03 62.9442 201.58 18.1278 226.572 17.5007C251.565 16.8736 271.305 55.7106 271.305 55.7106C271.305 55.7106 334.033 170.053 248.091 163.887C162.149 157.721 203.217 112.076 203.217 112.076C203.217 112.076 222.819 87.977 219.03 62.9442Z" fill="#2F2E41"/>
<path d="M314.771 397.851C325.839 402.775 337.403 407.799 349.507 407.318C361.611 406.838 374.348 399.043 376.234 387.077C377.208 380.9 375.277 374.273 377.642 368.484C380.824 360.696 391.089 357.692 399.068 360.361C407.047 363.03 412.909 369.913 417.111 377.202C424.975 390.838 428.125 408.736 419.694 422.029C412.386 433.553 398.524 438.76 385.629 443.227C368.454 449.176 349.278 455.081 332.635 447.773C315.897 440.423 306.78 419.189 312.978 401.991" fill="#3F3D56"/>
<path d="M277.846 181.922C277.846 181.922 299.846 192.922 288.846 204.922C277.846 216.922 209.846 250.922 184.846 245.922C159.846 240.922 153.846 225.922 153.846 221.922C153.846 217.922 155.732 169.535 163.732 171.535C171.732 173.535 221.846 218.922 277.846 181.922Z" fill="#675F91"/>
</svg>
